<svg width="12" height="11" viewBox="0 0 12 11" fill="none" xmlns="http://www.w3.org/2000/svg">
<path d="M4.79536 1.13035L-0.00964355 5.96035L4.79536 10.7903C4.83875 10.8473 4.89388 10.8943 4.95702 10.9282C5.02016 10.962 5.08983 10.9819 5.16131 10.9864C5.2328 10.991 5.30442 10.9801 5.37135 10.9546C5.43827 10.9291 5.49893 10.8895 5.54922 10.8384C5.59951 10.7874 5.63824 10.7262 5.66281 10.6589C5.68738 10.5917 5.69721 10.5199 5.69163 10.4485C5.68605 10.3771 5.66519 10.3077 5.63046 10.245C5.59574 10.1824 5.54796 10.1279 5.49036 10.0853L1.89536 6.46035L11.4604 6.46035C11.593 6.46035 11.7201 6.40767 11.8139 6.3139C11.9077 6.22013 11.9604 6.09296 11.9604 5.96035C11.9604 5.82774 11.9077 5.70056 11.8139 5.60679C11.7201 5.51303 11.593 5.46035 11.4604 5.46035L1.89536 5.46035L5.49036 1.83535C5.58385 1.7412 5.6361 1.61376 5.63563 1.48108C5.63517 1.3484 5.58201 1.22134 5.48786 1.12785C5.39371 1.03436 5.26627 0.9821 5.13359 0.982569C5.00091 0.983038 4.87385 1.0362 4.78036 1.13035H4.79536Z" fill="black"/>
</svg>
