<svg width="18" height="18" viewBox="0 0 18 18" fill="none" xmlns="http://www.w3.org/2000/svg">
<path fill-rule="evenodd" clip-rule="evenodd" d="M12.8436 11.6086L17.3582 16.4505C17.5169 16.6208 17.606 16.8518 17.6059 17.0925C17.6058 17.3333 17.5166 17.5641 17.3578 17.7343C17.199 17.9045 16.9837 18.0001 16.7592 18C16.5347 17.9999 16.3194 17.9042 16.1607 17.7339L11.6461 12.892C10.2965 14.0131 8.59934 14.5406 6.89992 14.3674C5.2005 14.1941 3.62646 13.333 2.49801 11.9593C1.36955 10.5855 0.77145 8.80231 0.825375 6.97241C0.8793 5.14251 1.5812 3.40337 2.78829 2.10879C3.99538 0.814208 5.61698 0.0614306 7.32321 0.00359662C9.02943 -0.0542374 10.6921 0.587216 11.973 1.79746C13.2539 3.00771 14.0568 4.69585 14.2184 6.51844C14.3799 8.34104 13.8889 10.1612 12.8436 11.6086ZM7.53589 12.5995C8.87124 12.5995 10.1519 12.0306 11.0961 11.0179C12.0404 10.0052 12.5708 8.63175 12.5708 7.19961C12.5708 5.76748 12.0404 4.39399 11.0961 3.38132C10.1519 2.36865 8.87124 1.79973 7.53589 1.79973C6.20054 1.79973 4.91989 2.36865 3.97566 3.38132C3.03142 4.39399 2.50096 5.76748 2.50096 7.19961C2.50096 8.63175 3.03142 10.0052 3.97566 11.0179C4.91989 12.0306 6.20054 12.5995 7.53589 12.5995Z" fill="black"/>
</svg>
